<svg width="80" height="80" viewBox="0 0 80 80" fill="none" xmlns="http://www.w3.org/2000/svg">
<g filter="url(#filter0_di_30_5179)">
<path d="M40 73.4375C58.467 73.4375 73.4375 58.467 73.4375 40C73.4375 21.533 58.467 6.5625 40 6.5625C21.533 6.5625 6.5625 21.533 6.5625 40C6.5625 58.467 21.533 73.4375 40 73.4375Z" fill="url(#paint0_radial_30_5179)"/>
</g>
<mask id="mask0_30_5179" style="mask-type:alpha" maskUnits="userSpaceOnUse" x="6" y="6" width="68" height="68">
<path d="M40 73.4375C58.467 73.4375 73.4375 58.467 73.4375 40C73.4375 21.533 58.467 6.5625 40 6.5625C21.533 6.5625 6.5625 21.533 6.5625 40C6.5625 58.467 21.533 73.4375 40 73.4375Z" fill="url(#paint1_radial_30_5179)"/>
</mask>
<g mask="url(#mask0_30_5179)">
<g filter="url(#filter1_d_30_5179)">
<g filter="url(#filter2_d_30_5179)">
<path fill-rule="evenodd" clip-rule="evenodd" d="M41.8615 19.7529C42.3419 12.689 43.9868 6.18998 45.3675 2.33984L47.1325 2.97279C45.8049 6.67473 44.1998 13.0038 43.7322 19.8801C43.6508 21.0769 43.6041 22.2867 43.599 23.4991C50.2884 20.4858 54.6355 16.0941 57.2996 11.9919C56.3012 10.0261 55.3351 8.32321 54.5002 6.87439L56.1248 5.93824C56.8182 7.14165 57.6054 8.5254 58.4294 10.0935C59.8018 7.56293 60.5327 5.25597 60.7926 3.60429L62.6448 3.89584C62.3142 5.99655 61.331 8.94652 59.4459 12.0919C60.0348 13.2902 60.6304 14.5789 61.2133 15.9594C63.0967 14.4168 64.8 13.1451 66.1896 12.195L67.2479 13.7427C65.7938 14.737 63.9725 16.1041 61.9524 17.7801C63.8647 22.6876 65.5405 28.6398 66.2453 35.688C66.5559 38.7938 66.5065 42.7697 66.2651 47.0091C74.791 45.1707 80.748 41.868 83.4602 39.5941L84.6648 41.031C81.654 43.5552 75.2318 47.0753 66.1428 48.9511C66.0662 50.0669 65.9784 51.1943 65.8823 52.3227C70.2054 50.8721 74.1396 50.2728 76.3576 50.1576L76.4549 52.0301C74.224 52.1459 70.1211 52.7921 65.6995 54.3701C65.6803 54.5753 65.6609 54.7804 65.6414 54.9853C65.4404 57.0903 65.2174 59.1793 64.991 61.1827C68.1603 64.0472 71.0346 66.3578 73.0541 67.8376L71.9459 69.35C70.1108 68.0053 67.5669 65.9763 64.7281 63.4632C64.5036 65.3749 64.2828 67.1762 64.0839 68.7991C63.893 70.357 63.7222 71.7505 63.5876 72.9198L61.7249 72.7054C61.8619 71.5152 62.0344 70.1077 62.2265 68.5402C62.4701 66.553 62.7452 64.3086 63.0195 61.9234C61.5958 60.6175 60.1221 59.2073 58.6453 57.7155C57.699 58.3011 56.7768 58.9415 55.895 59.6408C50.6252 63.8204 47.5703 69.8887 46.1011 74.2239C46.8083 74.7028 47.4864 75.1566 48.1289 75.5865C49.4777 76.4892 50.6693 77.2865 51.6429 77.9902L50.5446 79.5099C49.6617 78.8718 48.5237 78.1096 47.2108 77.2303C46.6775 76.8732 46.1154 76.4967 45.5298 76.1014C45.3562 76.7504 45.2281 77.3293 45.1421 77.8185L43.2954 77.4941C43.4164 76.805 43.6134 75.9544 43.8951 74.9882C41.8423 73.5762 39.5874 71.9641 37.3219 70.1684C36.4675 69.4911 35.6066 68.7843 34.7481 68.0476C33.8601 75.2583 33.7452 81.4131 33.9052 84.7996L32.0323 84.8881C31.8591 81.2218 31.9975 74.4299 33.0504 66.5465C29.1752 63.0131 25.4714 58.8571 22.7761 54.0525C20.8454 50.6108 19.0112 46.4534 17.3653 42.0672C15.6956 41.2932 14.1635 40.5065 12.7658 39.723C11.3975 50.8048 11.563 61.7391 11.8729 66.3434L10.0021 66.4693C9.67927 61.6728 9.5101 50.2009 11.0059 38.6967C6.44152 35.9259 3.56391 33.2859 2.21991 31.5016L3.71757 30.3735C4.83968 31.8632 7.31299 34.1696 11.2876 36.6668C11.4243 35.7414 11.5724 34.8184 11.7327 33.9012C12.0093 32.3186 12.3762 30.7535 12.8146 29.217C8.19083 28.5994 4.64196 27.5435 2.59056 26.6392L3.34693 24.9235C5.18925 25.7357 8.4396 26.7119 12.7136 27.3108C11.2661 21.7398 10.2917 16.6366 10.003 13.0439L11.872 12.8937C12.1223 16.0085 12.9195 20.3758 14.123 25.2411C17.6449 15.7715 23.4234 7.88267 26.4957 4.52359L27.8793 5.78904C24.7233 9.23955 18.5864 17.6927 15.275 27.6092C21.4752 28.1888 29.3636 27.9141 38.03 25.5031C39.3286 25.1419 40.5597 24.7322 41.7264 24.2814C41.7106 22.7552 41.7605 21.2388 41.8615 19.7529ZM41.7848 26.2634C40.7476 26.6446 39.6641 26.9947 38.5325 27.3095C29.7077 29.7645 21.6445 30.0721 15.2434 29.4892C15.491 30.3748 15.7498 31.2689 16.019 32.1677C16.8714 35.0145 17.8243 37.8959 18.852 40.6856C23.8255 42.9274 30.0455 45.0592 37.6173 46.6427C37.6996 46.406 37.7829 46.1697 37.8674 45.9338C39.1706 42.2972 41.051 38.762 43.2522 35.4222C42.3861 32.4796 41.9374 29.3694 41.7848 26.2634ZM44.0204 37.6962C42.2352 40.5549 40.7197 43.5323 39.6325 46.5663C39.5791 46.7155 39.5261 46.8649 39.4735 47.0145C39.8068 47.0783 40.1424 47.1411 40.4806 47.2028C43.9484 47.835 47.2557 48.1877 50.3872 48.3168C48.5076 45.8522 46.8078 43.3107 45.4257 40.7591C44.8916 39.7731 44.4252 38.7492 44.0204 37.6962ZM52.8064 48.3733C50.6127 45.6111 48.6312 42.7404 47.0743 39.8661C46.3648 38.5562 45.7811 37.1669 45.3081 35.7212C47.5599 32.4065 50.1382 29.2782 52.78 26.4395C55.37 23.6566 58.0083 21.1655 60.4371 19.0641C62.2021 23.7247 63.7232 29.3101 64.3796 35.8746C64.6894 38.9718 64.6269 43.024 64.3647 47.386C60.8842 48.0167 57.0179 48.3956 52.8064 48.3733ZM51.8996 50.2375C48.2155 50.17 44.2887 49.803 40.1443 49.0474C39.7152 48.9691 39.2899 48.8891 38.8684 48.8074C37.022 54.5022 35.8121 60.3958 35.0434 65.8171C36.1832 66.828 37.3379 67.7885 38.4866 68.699C40.5752 70.3545 42.614 71.8239 44.4978 73.1273C46.1168 68.5701 49.3122 62.4686 54.7299 58.1718C55.5608 57.5129 56.4238 56.9039 57.3072 56.3417C55.4561 54.4097 53.6226 52.3599 51.8996 50.2375ZM58.9599 55.3554C57.3869 53.7263 55.8248 52.011 54.3329 50.239C57.8886 50.1775 61.1984 49.8394 64.2378 49.3126C64.1503 50.5381 64.0496 51.78 63.9391 53.0248C62.2831 53.6674 60.5999 54.4378 58.9599 55.3554ZM60.3243 56.745C61.317 57.7394 62.3072 58.6962 63.28 59.6079C63.441 58.1415 63.5982 56.6384 63.7445 55.1231C62.6018 55.5971 61.4531 56.1355 60.3243 56.745ZM33.3734 64.2873C34.1507 59.1904 35.3153 53.7349 37.0191 48.4329C30.2604 47.0054 24.5363 45.1417 19.7843 43.1371C21.2253 46.8066 22.7884 50.242 24.4114 53.1351C26.768 57.336 29.9534 61.0483 33.3734 64.2873ZM59.7073 17.2191C57.0924 19.4515 54.2212 22.1388 51.4075 25.1622C49.062 27.6824 46.7463 30.4469 44.6491 33.3867C44.0413 30.8579 43.7259 28.203 43.6304 25.5327C50.5855 22.5745 55.2622 18.1914 58.2512 13.9312C58.7401 14.9645 59.2292 16.0601 59.7073 17.2191ZM16.4489 39.5477C15.6495 37.2809 14.9035 34.9788 14.2228 32.7056C14.1557 32.4817 14.0893 32.258 14.0235 32.0346C13.8566 32.7601 13.708 33.4903 13.5797 34.224C13.3776 35.3807 13.1951 36.5473 13.0306 37.7164C14.0822 38.3237 15.2209 38.937 16.4489 39.5477Z" fill="url(#paint2_linear_30_5179)"/>
</g>
<circle cx="38.75" cy="47.1875" r="5.625" fill="url(#paint3_linear_30_5179)"/>
<circle cx="44.375" cy="35.3125" r="3.125" fill="url(#paint4_linear_30_5179)"/>
<circle cx="34.0625" cy="66.5625" r="2.5" fill="url(#paint5_linear_30_5179)"/>
<circle cx="12.1875" cy="38.4375" r="2.5" fill="url(#paint6_linear_30_5179)"/>
<circle cx="14.375" cy="28.75" r="3.125" fill="url(#paint7_linear_30_5179)"/>
</g>
</g>
<defs>
<filter id="filter0_di_30_5179" x="2.8125" y="4.6875" width="74.375" height="74.375" filterUnits="userSpaceOnUse" color-interpolation-filters="sRGB">
<feFlood flood-opacity="0" result="BackgroundImageFix"/>
<feColorMatrix in="SourceAlpha" type="matrix" values="0 0 0 0 0 0 0 0 0 0 0 0 0 0 0 0 0 0 127 0" result="hardAlpha"/>
<feOffset dy="1.875"/>
<feGaussianBlur stdDeviation="1.875"/>
<feColorMatrix type="matrix" values="0 0 0 0 0.131608 0 0 0 0 0.0823529 0 0 0 0 0.698039 0 0 0 0.24 0"/>
<feBlend mode="normal" in2="BackgroundImageFix" result="effect1_dropShadow_30_5179"/>
<feBlend mode="normal" in="SourceGraphic" in2="effect1_dropShadow_30_5179" result="shape"/>
<feColorMatrix in="SourceAlpha" type="matrix" values="0 0 0 0 0 0 0 0 0 0 0 0 0 0 0 0 0 0 127 0" result="hardAlpha"/>
<feOffset dy="1.25"/>
<feGaussianBlur stdDeviation="0.9375"/>
<feComposite in2="hardAlpha" operator="arithmetic" k2="-1" k3="1"/>
<feColorMatrix type="matrix" values="0 0 0 0 1 0 0 0 0 1 0 0 0 0 1 0 0 0 0.4 0"/>
<feBlend mode="overlay" in2="shape" result="effect2_innerShadow_30_5179"/>
</filter>
<filter id="filter1_d_30_5179" x="-0.28009" y="2.33984" width="87.4449" height="87.5479" filterUnits="userSpaceOnUse" color-interpolation-filters="sRGB">
<feFlood flood-opacity="0" result="BackgroundImageFix"/>
<feColorMatrix in="SourceAlpha" type="matrix" values="0 0 0 0 0 0 0 0 0 0 0 0 0 0 0 0 0 0 127 0" result="hardAlpha"/>
<feOffset dy="2.5"/>
<feGaussianBlur stdDeviation="1.25"/>
<feComposite in2="hardAlpha" operator="out"/>
<feColorMatrix type="matrix" values="0 0 0 0 0.186725 0 0 0 0 0.1225 0 0 0 0 0.6 0 0 0 0.4 0"/>
<feBlend mode="normal" in2="BackgroundImageFix" result="effect1_dropShadow_30_5179"/>
<feBlend mode="normal" in="SourceGraphic" in2="effect1_dropShadow_30_5179" result="shape"/>
</filter>
<filter id="filter2_d_30_5179" x="0.96991" y="2.33984" width="84.9449" height="85.0479" filterUnits="userSpaceOnUse" color-interpolation-filters="sRGB">
<feFlood flood-opacity="0" result="BackgroundImageFix"/>
<feColorMatrix in="SourceAlpha" type="matrix" values="0 0 0 0 0 0 0 0 0 0 0 0 0 0 0 0 0 0 127 0" result="hardAlpha"/>
<feOffset dy="1.25"/>
<feGaussianBlur stdDeviation="0.625"/>
<feComposite in2="hardAlpha" operator="out"/>
<feColorMatrix type="matrix" values="0 0 0 0 0 0 0 0 0 1 0 0 0 0 0.46 0 0 0 0.25 0"/>
<feBlend mode="normal" in2="BackgroundImageFix" result="effect1_dropShadow_30_5179"/>
<feBlend mode="normal" in="SourceGraphic" in2="effect1_dropShadow_30_5179" result="shape"/>
</filter>
<radialGradient id="paint0_radial_30_5179" cx="0" cy="0" r="1" gradientUnits="userSpaceOnUse" gradientTransform="translate(40 -3.59374) rotate(90) scale(82.9687 82.5379)">
<stop stop-color="#61B3FF"/>
<stop offset="1" stop-color="#5D38F0"/>
</radialGradient>
<radialGradient id="paint1_radial_30_5179" cx="0" cy="0" r="1" gradientUnits="userSpaceOnUse" gradientTransform="translate(40 -3.59374) rotate(90) scale(82.9687 82.5379)">
<stop stop-color="#61B3FF"/>
<stop offset="1" stop-color="#5D38F0"/>
</radialGradient>
<linearGradient id="paint2_linear_30_5179" x1="43.4375" y1="18.1251" x2="43.4129" y2="73.1227" gradientUnits="userSpaceOnUse">
<stop stop-color="#F8FAFF"/>
<stop offset="1" stop-color="#B3CAFF"/>
</linearGradient>
<linearGradient id="paint3_linear_30_5179" x1="38.75" y1="41.5625" x2="38.75" y2="52.8125" gradientUnits="userSpaceOnUse">
<stop stop-color="#F3F7FF"/>
<stop offset="1" stop-color="#C5D6FC"/>
</linearGradient>
<linearGradient id="paint4_linear_30_5179" x1="44.375" y1="32.1875" x2="44.375" y2="38.4375" gradientUnits="userSpaceOnUse">
<stop stop-color="#F3F7FF"/>
<stop offset="1" stop-color="#C5D6FC"/>
</linearGradient>
<linearGradient id="paint5_linear_30_5179" x1="34.0625" y1="64.0625" x2="34.0625" y2="69.0625" gradientUnits="userSpaceOnUse">
<stop stop-color="#F3F7FF"/>
<stop offset="1" stop-color="#C5D6FC"/>
</linearGradient>
<linearGradient id="paint6_linear_30_5179" x1="12.1875" y1="35.9375" x2="12.1875" y2="40.9375" gradientUnits="userSpaceOnUse">
<stop stop-color="#F3F7FF"/>
<stop offset="1" stop-color="#C5D6FC"/>
</linearGradient>
<linearGradient id="paint7_linear_30_5179" x1="14.375" y1="25.625" x2="14.375" y2="31.875" gradientUnits="userSpaceOnUse">
<stop stop-color="#F3F7FF"/>
<stop offset="1" stop-color="#C5D6FC"/>
</linearGradient>
</defs>
</svg>
